<mxfile host="app.diagrams.net" modified="2024-02-18T08:42:58.471Z" agent="Mozilla/5.0 (Windows NT 10.0; Win64; x64) AppleWebKit/537.36 (KHTML, like Gecko) Chrome/121.0.0.0 Safari/537.36" etag="92Omjny6Y_inMCTU0UQQ" version="23.1.5" type="github">
  <diagram name="Page-1" id="pKrrgA7OqujfalaCjpp5">
    <mxGraphModel dx="1159" dy="458" grid="1" gridSize="10" guides="1" tooltips="1" connect="1" arrows="1" fold="1" page="1" pageScale="1" pageWidth="827" pageHeight="1169" math="0" shadow="0">
      <root>
        <mxCell id="0" />
        <mxCell id="1" parent="0" />
        <mxCell id="wgJoF1vuldbIRQnpeFdA-1" value="div #App" style="ellipse;whiteSpace=wrap;html=1;aspect=fixed;" vertex="1" parent="1">
          <mxGeometry x="240" y="590" width="80" height="80" as="geometry" />
        </mxCell>
        <mxCell id="wgJoF1vuldbIRQnpeFdA-2" value="h1" style="ellipse;whiteSpace=wrap;html=1;aspect=fixed;" vertex="1" parent="1">
          <mxGeometry x="55" y="820" width="80" height="80" as="geometry" />
        </mxCell>
        <mxCell id="wgJoF1vuldbIRQnpeFdA-3" value="h2" style="ellipse;whiteSpace=wrap;html=1;aspect=fixed;" vertex="1" parent="1">
          <mxGeometry x="150" y="820" width="80" height="80" as="geometry" />
        </mxCell>
        <mxCell id="wgJoF1vuldbIRQnpeFdA-4" value="button" style="ellipse;whiteSpace=wrap;html=1;aspect=fixed;" vertex="1" parent="1">
          <mxGeometry x="240" y="820" width="80" height="80" as="geometry" />
        </mxCell>
        <mxCell id="wgJoF1vuldbIRQnpeFdA-5" value="p, counter variable" style="ellipse;whiteSpace=wrap;html=1;aspect=fixed;" vertex="1" parent="1">
          <mxGeometry x="333" y="820" width="80" height="80" as="geometry" />
        </mxCell>
        <mxCell id="wgJoF1vuldbIRQnpeFdA-6" value="p, count state variable" style="ellipse;whiteSpace=wrap;html=1;aspect=fixed;" vertex="1" parent="1">
          <mxGeometry x="420" y="820" width="80" height="80" as="geometry" />
        </mxCell>
        <mxCell id="wgJoF1vuldbIRQnpeFdA-8" value="" style="endArrow=classic;html=1;rounded=0;exitX=0.5;exitY=1;exitDx=0;exitDy=0;entryX=0.5;entryY=0;entryDx=0;entryDy=0;" edge="1" parent="1" source="wgJoF1vuldbIRQnpeFdA-1" target="wgJoF1vuldbIRQnpeFdA-2">
          <mxGeometry width="50" height="50" relative="1" as="geometry">
            <mxPoint x="410" y="880" as="sourcePoint" />
            <mxPoint x="460" y="830" as="targetPoint" />
          </mxGeometry>
        </mxCell>
        <mxCell id="wgJoF1vuldbIRQnpeFdA-10" value="" style="endArrow=classic;html=1;rounded=0;exitX=0.5;exitY=1;exitDx=0;exitDy=0;entryX=0.5;entryY=0;entryDx=0;entryDy=0;" edge="1" parent="1" source="wgJoF1vuldbIRQnpeFdA-1" target="wgJoF1vuldbIRQnpeFdA-3">
          <mxGeometry width="50" height="50" relative="1" as="geometry">
            <mxPoint x="405" y="680" as="sourcePoint" />
            <mxPoint x="105" y="830" as="targetPoint" />
          </mxGeometry>
        </mxCell>
        <mxCell id="wgJoF1vuldbIRQnpeFdA-11" value="" style="endArrow=classic;html=1;rounded=0;exitX=0.5;exitY=1;exitDx=0;exitDy=0;entryX=0.5;entryY=0;entryDx=0;entryDy=0;" edge="1" parent="1" source="wgJoF1vuldbIRQnpeFdA-1" target="wgJoF1vuldbIRQnpeFdA-4">
          <mxGeometry width="50" height="50" relative="1" as="geometry">
            <mxPoint x="405" y="680" as="sourcePoint" />
            <mxPoint x="255" y="830" as="targetPoint" />
          </mxGeometry>
        </mxCell>
        <mxCell id="wgJoF1vuldbIRQnpeFdA-12" value="" style="endArrow=classic;html=1;rounded=0;exitX=0.5;exitY=1;exitDx=0;exitDy=0;entryX=0.5;entryY=0;entryDx=0;entryDy=0;" edge="1" parent="1" source="wgJoF1vuldbIRQnpeFdA-1" target="wgJoF1vuldbIRQnpeFdA-5">
          <mxGeometry width="50" height="50" relative="1" as="geometry">
            <mxPoint x="405" y="680" as="sourcePoint" />
            <mxPoint x="405" y="830" as="targetPoint" />
          </mxGeometry>
        </mxCell>
        <mxCell id="wgJoF1vuldbIRQnpeFdA-13" value="" style="endArrow=classic;html=1;rounded=0;exitX=0.5;exitY=1;exitDx=0;exitDy=0;entryX=0.5;entryY=0;entryDx=0;entryDy=0;" edge="1" parent="1" source="wgJoF1vuldbIRQnpeFdA-1" target="wgJoF1vuldbIRQnpeFdA-6">
          <mxGeometry width="50" height="50" relative="1" as="geometry">
            <mxPoint x="405" y="680" as="sourcePoint" />
            <mxPoint x="555" y="830" as="targetPoint" />
          </mxGeometry>
        </mxCell>
        <mxCell id="wgJoF1vuldbIRQnpeFdA-14" value="" style="endArrow=classic;html=1;rounded=0;" edge="1" parent="1">
          <mxGeometry width="50" height="50" relative="1" as="geometry">
            <mxPoint x="450" y="730" as="sourcePoint" />
            <mxPoint x="620" y="730" as="targetPoint" />
          </mxGeometry>
        </mxCell>
        <mxCell id="wgJoF1vuldbIRQnpeFdA-15" value="Button Click" style="text;html=1;align=center;verticalAlign=middle;resizable=0;points=[];autosize=1;strokeColor=none;fillColor=none;" vertex="1" parent="1">
          <mxGeometry x="490" y="698" width="90" height="30" as="geometry" />
        </mxCell>
        <mxCell id="wgJoF1vuldbIRQnpeFdA-16" value="div #App" style="ellipse;whiteSpace=wrap;html=1;aspect=fixed;" vertex="1" parent="1">
          <mxGeometry x="745" y="590" width="80" height="80" as="geometry" />
        </mxCell>
        <mxCell id="wgJoF1vuldbIRQnpeFdA-17" value="h1" style="ellipse;whiteSpace=wrap;html=1;aspect=fixed;" vertex="1" parent="1">
          <mxGeometry x="560" y="820" width="80" height="80" as="geometry" />
        </mxCell>
        <mxCell id="wgJoF1vuldbIRQnpeFdA-18" value="h2" style="ellipse;whiteSpace=wrap;html=1;aspect=fixed;" vertex="1" parent="1">
          <mxGeometry x="655" y="820" width="80" height="80" as="geometry" />
        </mxCell>
        <mxCell id="wgJoF1vuldbIRQnpeFdA-19" value="button" style="ellipse;whiteSpace=wrap;html=1;aspect=fixed;" vertex="1" parent="1">
          <mxGeometry x="745" y="820" width="80" height="80" as="geometry" />
        </mxCell>
        <mxCell id="wgJoF1vuldbIRQnpeFdA-20" value="p, counter variable" style="ellipse;whiteSpace=wrap;html=1;aspect=fixed;" vertex="1" parent="1">
          <mxGeometry x="838" y="820" width="80" height="80" as="geometry" />
        </mxCell>
        <mxCell id="wgJoF1vuldbIRQnpeFdA-21" value="p, count state variable" style="ellipse;whiteSpace=wrap;html=1;aspect=fixed;fillColor=#FF8000;strokeColor=#FFFFFF;" vertex="1" parent="1">
          <mxGeometry x="925" y="820" width="80" height="80" as="geometry" />
        </mxCell>
        <mxCell id="wgJoF1vuldbIRQnpeFdA-22" value="" style="endArrow=classic;html=1;rounded=0;exitX=0.5;exitY=1;exitDx=0;exitDy=0;entryX=0.5;entryY=0;entryDx=0;entryDy=0;" edge="1" parent="1" source="wgJoF1vuldbIRQnpeFdA-16" target="wgJoF1vuldbIRQnpeFdA-17">
          <mxGeometry width="50" height="50" relative="1" as="geometry">
            <mxPoint x="915" y="880" as="sourcePoint" />
            <mxPoint x="965" y="830" as="targetPoint" />
          </mxGeometry>
        </mxCell>
        <mxCell id="wgJoF1vuldbIRQnpeFdA-23" value="" style="endArrow=classic;html=1;rounded=0;exitX=0.5;exitY=1;exitDx=0;exitDy=0;entryX=0.5;entryY=0;entryDx=0;entryDy=0;" edge="1" parent="1" source="wgJoF1vuldbIRQnpeFdA-16" target="wgJoF1vuldbIRQnpeFdA-18">
          <mxGeometry width="50" height="50" relative="1" as="geometry">
            <mxPoint x="910" y="680" as="sourcePoint" />
            <mxPoint x="610" y="830" as="targetPoint" />
          </mxGeometry>
        </mxCell>
        <mxCell id="wgJoF1vuldbIRQnpeFdA-24" value="" style="endArrow=classic;html=1;rounded=0;exitX=0.5;exitY=1;exitDx=0;exitDy=0;entryX=0.5;entryY=0;entryDx=0;entryDy=0;" edge="1" parent="1" source="wgJoF1vuldbIRQnpeFdA-16" target="wgJoF1vuldbIRQnpeFdA-19">
          <mxGeometry width="50" height="50" relative="1" as="geometry">
            <mxPoint x="910" y="680" as="sourcePoint" />
            <mxPoint x="760" y="830" as="targetPoint" />
          </mxGeometry>
        </mxCell>
        <mxCell id="wgJoF1vuldbIRQnpeFdA-25" value="" style="endArrow=classic;html=1;rounded=0;exitX=0.5;exitY=1;exitDx=0;exitDy=0;entryX=0.5;entryY=0;entryDx=0;entryDy=0;" edge="1" parent="1" source="wgJoF1vuldbIRQnpeFdA-16" target="wgJoF1vuldbIRQnpeFdA-20">
          <mxGeometry width="50" height="50" relative="1" as="geometry">
            <mxPoint x="910" y="680" as="sourcePoint" />
            <mxPoint x="910" y="830" as="targetPoint" />
          </mxGeometry>
        </mxCell>
        <mxCell id="wgJoF1vuldbIRQnpeFdA-26" value="" style="endArrow=classic;html=1;rounded=0;exitX=0.5;exitY=1;exitDx=0;exitDy=0;entryX=0.5;entryY=0;entryDx=0;entryDy=0;" edge="1" parent="1" source="wgJoF1vuldbIRQnpeFdA-16" target="wgJoF1vuldbIRQnpeFdA-21">
          <mxGeometry width="50" height="50" relative="1" as="geometry">
            <mxPoint x="910" y="680" as="sourcePoint" />
            <mxPoint x="1060" y="830" as="targetPoint" />
          </mxGeometry>
        </mxCell>
        <mxCell id="wgJoF1vuldbIRQnpeFdA-27" value="Updated state" style="text;html=1;align=center;verticalAlign=middle;resizable=0;points=[];autosize=1;strokeColor=none;fillColor=none;" vertex="1" parent="1">
          <mxGeometry x="920" y="908" width="100" height="30" as="geometry" />
        </mxCell>
      </root>
    </mxGraphModel>
  </diagram>
</mxfile>
